<svg xmlns="http://www.w3.org/2000/svg" width="1200" height="360" viewBox="0 0 1200 360" role="img">
<defs>
<linearGradient id="bg" x1="0" y1="0" x2="1" y2="1"><stop offset="0" stop-color="#0D0718"/><stop offset="0.55" stop-color="#10091D"/><stop offset="1" stop-color="#170B20"/></linearGradient>
<linearGradient id="easy" x1="0" y1="0" x2="1" y2="0"><stop offset="0" stop-color="#22C55E"/><stop offset="1" stop-color="#4ADE80"/></linearGradient>
<style>
.title{font:700 30px -apple-system,BlinkMacSystemFont,"Segoe UI",sans-serif;fill:#F8F2FF}.rank{font:700 30px -apple-system,BlinkMacSystemFont,"Segoe UI",sans-serif;fill:#C084FC}.sub{font:500 15px -apple-system,BlinkMacSystemFont,"Segoe UI",sans-serif;fill:#AFA2C3}.label{font:700 20px -apple-system,BlinkMacSystemFont,"Segoe UI",sans-serif;fill:#F5EDFF}.value{font:700 18px -apple-system,BlinkMacSystemFont,"Segoe UI",sans-serif;fill:#C9B8D9}.pct{font:600 15px -apple-system,BlinkMacSystemFont,"Segoe UI",sans-serif;fill:#9F91AF}.stat{font:700 22px -apple-system,BlinkMacSystemFont,"Segoe UI",sans-serif;fill:#F3E9FF}.muted{font:500 14px -apple-system,BlinkMacSystemFont,"Segoe UI",sans-serif;fill:#9F91AF}.chip{font:600 15px -apple-system,BlinkMacSystemFont,"Segoe UI",sans-serif;fill:#D8CBE4}
</style></defs>
<rect x="2" y="2" width="1196" height="356" rx="20" fill="url(#bg)" stroke="#7C3AED" stroke-width="2.5"/>
<g transform="translate(42 43)"><path d="M0 28 L25 2 L44 21 L25 40 L10 25" fill="none" stroke="#F2F2F2" stroke-width="8" stroke-linecap="round" stroke-linejoin="round"/><path d="M31 17 L47 8" stroke="#FFA116" stroke-width="8" stroke-linecap="round"/><path d="M29 31 L50 31" stroke="#A7A7A7" stroke-width="8" stroke-linecap="round"/></g>
<text x="115" y="64" class="title">itsmeetsharma</text><text x="115" y="91" class="sub">LeetCode  ·  Problem Solving  ·  DSA</text><text x="1155" y="65" text-anchor="end" class="rank">#1,586,779</text><text x="1155" y="91" text-anchor="end" class="sub">GLOBAL RANK</text>
<rect x="38" y="122" width="358" height="126" rx="16" fill="#120D1E" stroke="#30233E"/><rect x="421" y="122" width="358" height="126" rx="16" fill="#120D1E" stroke="#30233E"/><rect x="804" y="122" width="358" height="126" rx="16" fill="#120D1E" stroke="#30233E"/>
<text x="62" y="153" class="label">Easy</text><text x="372" y="153" text-anchor="end" class="value">83 / 965</text><text x="62" y="179" class="pct">8.60% solved</text><rect x="62" y="194" width="310" height="10" rx="5" fill="#2A2036"/><rect x="62" y="194" width="26.7" height="10" rx="5" fill="url(#easy)"/>
<text x="445" y="153" class="label">Medium</text><text x="755" y="153" text-anchor="end" class="value">23 / 2115</text><text x="445" y="179" class="pct">1.09% solved</text><rect x="445" y="194" width="310" height="10" rx="5" fill="#2A2036"/><rect x="445" y="194" width="4" height="10" rx="5" fill="#F5B94C"/>
<text x="828" y="153" class="label">Hard</text><text x="1138" y="153" text-anchor="end" class="value">2 / 975</text><text x="828" y="179" class="pct">0.21% solved</text><rect x="828" y="194" width="310" height="10" rx="5" fill="#2A2036"/><rect x="828" y="194" width="4" height="10" rx="5" fill="#EF6A67"/>
<line x1="38" y1="274" x2="1162" y2="274" stroke="#30233E"/><text x="62" y="306" class="stat">108</text><text x="105" y="306" class="muted">problems solved</text><text x="350" y="306" class="muted">C++</text><text x="392" y="306" class="chip">106</text><text x="470" y="306" class="muted">JavaScript</text><text x="568" y="306" class="chip">1</text><text x="625" y="306" class="muted">Pandas</text><text x="690" y="306" class="chip">1</text><text x="1138" y="306" text-anchor="end" class="muted">Updated from LeetCode profile</text><text x="62" y="333" class="muted">Keep solving. Keep improving. 🚀</text>
</svg>